<svg width="309" height="59" viewBox="0 0 309 59" fill="none" xmlns="http://www.w3.org/2000/svg">
<path d="M22.919 32.6065V30.2202L37.0668 23.3594V26.6087L26.6264 31.3707L26.7223 31.179V31.6371L26.6264 31.456L37.0668 36.2074V39.4673L22.919 32.6065ZM267.053 17.1591L260.021 43.2812H257.177L264.208 17.1591H267.053ZM286.334 32.6065L272.186 39.4673V36.2074L282.627 31.456L282.52 31.6371V31.179L282.627 31.3707L272.186 26.6087V23.3594L286.334 30.2202V32.6065Z" fill="#FF566F"/>
<path d="M50.0605 37.825C51.1105 37.825 51.9455 37.64 52.5655 37.27C53.1855 36.89 53.4955 36.37 53.4955 35.71C53.4955 35.28 53.4055 34.915 53.2255 34.615C53.0455 34.305 52.6855 34.025 52.1455 33.775C51.6055 33.515 50.7855 33.245 49.6855 32.965C48.6455 32.695 47.7305 32.375 46.9405 32.005C46.1605 31.635 45.5555 31.155 45.1255 30.565C44.6955 29.975 44.4805 29.215 44.4805 28.285C44.4805 27.375 44.7355 26.58 45.2455 25.9C45.7555 25.22 46.4855 24.69 47.4355 24.31C48.3955 23.93 49.5205 23.74 50.8105 23.74C52.1405 23.74 53.3005 23.915 54.2905 24.265C55.2805 24.615 56.1255 25.05 56.8255 25.57L55.4155 27.685C54.7955 27.275 54.1155 26.94 53.3755 26.68C52.6455 26.42 51.8205 26.29 50.9005 26.29C49.8305 26.29 49.0605 26.45 48.5905 26.77C48.1305 27.09 47.9005 27.515 47.9005 28.045C47.9005 28.435 48.0155 28.765 48.2455 29.035C48.4855 29.295 48.8955 29.54 49.4755 29.77C50.0555 29.99 50.8755 30.25 51.9355 30.55C52.9655 30.83 53.8605 31.16 54.6205 31.54C55.3905 31.92 55.9855 32.425 56.4055 33.055C56.8355 33.675 57.0505 34.485 57.0505 35.485C57.0505 36.625 56.7205 37.56 56.0605 38.29C55.4105 39.01 54.5505 39.545 53.4805 39.895C52.4205 40.235 51.2805 40.405 50.0605 40.405C48.5905 40.405 47.3205 40.195 46.2505 39.775C45.1805 39.345 44.2805 38.81 43.5505 38.17L45.3355 36.13C45.9555 36.63 46.6655 37.04 47.4655 37.36C48.2655 37.67 49.1305 37.825 50.0605 37.825ZM76.0438 36.115C76.0438 36.735 76.1388 37.19 76.3288 37.48C76.5187 37.76 76.8237 37.97 77.2438 38.11L76.4938 40.39C75.7138 40.3 75.0437 40.085 74.4837 39.745C73.9237 39.405 73.4988 38.89 73.2088 38.2C72.6287 38.93 71.8937 39.48 71.0037 39.85C70.1137 40.22 69.1637 40.405 68.1537 40.405C66.5537 40.405 65.2837 39.955 64.3437 39.055C63.4137 38.145 62.9487 36.955 62.9487 35.485C62.9487 33.815 63.5987 32.53 64.8987 31.63C66.1987 30.73 68.0587 30.28 70.4787 30.28H72.7437V29.245C72.7437 28.225 72.4337 27.49 71.8137 27.04C71.2037 26.59 70.3387 26.365 69.2187 26.365C68.6987 26.365 68.0687 26.435 67.3287 26.575C66.5887 26.705 65.8137 26.91 65.0037 27.19L64.1787 24.82C65.1687 24.45 66.1387 24.18 67.0887 24.01C68.0387 23.83 68.9187 23.74 69.7287 23.74C71.8487 23.74 73.4287 24.21 74.4688 25.15C75.5188 26.09 76.0438 27.39 76.0438 29.05V36.115ZM69.1737 37.93C69.8537 37.93 70.5187 37.75 71.1687 37.39C71.8187 37.03 72.3437 36.525 72.7437 35.875V32.38H70.8837C69.3037 32.38 68.1737 32.645 67.4937 33.175C66.8137 33.695 66.4737 34.415 66.4737 35.335C66.4737 36.175 66.6987 36.82 67.1487 37.27C67.6087 37.71 68.2837 37.93 69.1737 37.93ZM83.577 40V24.16H86.472L86.727 26.215C87.387 25.405 88.167 24.79 89.067 24.37C89.967 23.95 90.892 23.74 91.842 23.74C93.322 23.74 94.427 24.155 95.157 24.985C95.897 25.805 96.267 26.96 96.267 28.45V40H92.907V30.115C92.907 29.195 92.852 28.455 92.742 27.895C92.632 27.335 92.412 26.93 92.082 26.68C91.762 26.43 91.282 26.305 90.642 26.305C90.132 26.305 89.647 26.415 89.187 26.635C88.727 26.855 88.307 27.145 87.927 27.505C87.547 27.855 87.217 28.23 86.937 28.63V40H83.577ZM116.445 39.16C115.865 39.53 115.17 39.83 114.36 40.06C113.55 40.29 112.705 40.405 111.825 40.405C109.985 40.405 108.585 39.93 107.625 38.98C106.675 38.02 106.2 36.76 106.2 35.2V26.605H102.675V24.16H106.2V20.62L109.56 20.215V24.16H114.9L114.525 26.605H109.56V35.17C109.56 36.02 109.77 36.655 110.19 37.075C110.62 37.485 111.32 37.69 112.29 37.69C112.87 37.69 113.405 37.62 113.895 37.48C114.385 37.34 114.83 37.16 115.23 36.94L116.445 39.16ZM131.509 24.16V37.54H135.814V40H123.409V37.54H128.149V26.62H123.559V24.16H131.509ZM129.169 16.405C129.829 16.405 130.359 16.605 130.759 17.005C131.169 17.405 131.374 17.905 131.374 18.505C131.374 19.105 131.169 19.61 130.759 20.02C130.359 20.43 129.829 20.635 129.169 20.635C128.529 20.635 128.004 20.43 127.594 20.02C127.184 19.61 126.979 19.105 126.979 18.505C126.979 17.905 127.184 17.405 127.594 17.005C128.004 16.605 128.529 16.405 129.169 16.405ZM154.597 36.115C154.597 36.735 154.692 37.19 154.882 37.48C155.072 37.76 155.377 37.97 155.797 38.11L155.047 40.39C154.267 40.3 153.597 40.085 153.037 39.745C152.477 39.405 152.052 38.89 151.762 38.2C151.182 38.93 150.447 39.48 149.557 39.85C148.667 40.22 147.717 40.405 146.707 40.405C145.107 40.405 143.837 39.955 142.897 39.055C141.967 38.145 141.502 36.955 141.502 35.485C141.502 33.815 142.152 32.53 143.452 31.63C144.752 30.73 146.612 30.28 149.032 30.28H151.297V29.245C151.297 28.225 150.987 27.49 150.367 27.04C149.757 26.59 148.892 26.365 147.772 26.365C147.252 26.365 146.622 26.435 145.882 26.575C145.142 26.705 144.367 26.91 143.557 27.19L142.732 24.82C143.722 24.45 144.692 24.18 145.642 24.01C146.592 23.83 147.472 23.74 148.282 23.74C150.402 23.74 151.982 24.21 153.022 25.15C154.072 26.09 154.597 27.39 154.597 29.05V36.115ZM147.727 37.93C148.407 37.93 149.072 37.75 149.722 37.39C150.372 37.03 150.897 36.525 151.297 35.875V32.38H149.437C147.857 32.38 146.727 32.645 146.047 33.175C145.367 33.695 145.027 34.415 145.027 35.335C145.027 36.175 145.252 36.82 145.702 37.27C146.162 37.71 146.837 37.93 147.727 37.93ZM175.465 22.15L176.365 24.94C175.735 25.15 175.04 25.29 174.28 25.36C173.53 25.43 172.69 25.465 171.76 25.465C172.71 25.885 173.425 26.425 173.905 27.085C174.385 27.735 174.625 28.535 174.625 29.485C174.625 30.515 174.375 31.435 173.875 32.245C173.375 33.055 172.66 33.69 171.73 34.15C170.8 34.61 169.685 34.84 168.385 34.84C167.925 34.84 167.525 34.82 167.185 34.78C166.855 34.74 166.53 34.675 166.21 34.585C166.01 34.725 165.84 34.915 165.7 35.155C165.57 35.385 165.505 35.63 165.505 35.89C165.505 36.21 165.635 36.49 165.895 36.73C166.165 36.96 166.695 37.075 167.485 37.075H170.245C171.375 37.075 172.37 37.27 173.23 37.66C174.1 38.04 174.78 38.565 175.27 39.235C175.77 39.895 176.02 40.645 176.02 41.485C176.02 43.065 175.34 44.29 173.98 45.16C172.62 46.03 170.66 46.465 168.1 46.465C166.29 46.465 164.87 46.28 163.84 45.91C162.81 45.54 162.085 44.99 161.665 44.26C161.245 43.53 161.035 42.635 161.035 41.575H164.05C164.05 42.125 164.155 42.58 164.365 42.94C164.585 43.3 164.99 43.57 165.58 43.75C166.17 43.93 167.02 44.02 168.13 44.02C169.24 44.02 170.12 43.925 170.77 43.735C171.43 43.555 171.905 43.29 172.195 42.94C172.495 42.6 172.645 42.19 172.645 41.71C172.645 41.07 172.365 40.575 171.805 40.225C171.245 39.875 170.495 39.7 169.555 39.7H166.84C165.34 39.7 164.24 39.395 163.54 38.785C162.85 38.175 162.505 37.465 162.505 36.655C162.505 36.115 162.655 35.595 162.955 35.095C163.265 34.595 163.705 34.16 164.275 33.79C163.325 33.29 162.63 32.685 162.19 31.975C161.76 31.255 161.545 30.385 161.545 29.365C161.545 28.245 161.825 27.265 162.385 26.425C162.945 25.585 163.72 24.93 164.71 24.46C165.71 23.99 166.86 23.755 168.16 23.755C169.43 23.755 170.49 23.69 171.34 23.56C172.19 23.42 172.93 23.225 173.56 22.975C174.2 22.725 174.835 22.45 175.465 22.15ZM168.19 26.065C167.12 26.065 166.315 26.37 165.775 26.98C165.235 27.58 164.965 28.365 164.965 29.335C164.965 30.335 165.24 31.14 165.79 31.75C166.35 32.35 167.165 32.65 168.235 32.65C169.225 32.65 169.98 32.36 170.5 31.78C171.03 31.2 171.295 30.375 171.295 29.305C171.295 28.225 171.035 27.415 170.515 26.875C169.995 26.335 169.22 26.065 168.19 26.065ZM188.113 23.74C189.663 23.74 190.968 24.085 192.028 24.775C193.088 25.465 193.888 26.43 194.428 27.67C194.978 28.91 195.253 30.37 195.253 32.05C195.253 33.72 194.973 35.185 194.413 36.445C193.863 37.695 193.053 38.67 191.983 39.37C190.923 40.06 189.628 40.405 188.098 40.405C186.568 40.405 185.268 40.07 184.198 39.4C183.138 38.72 182.328 37.755 181.768 36.505C181.218 35.255 180.943 33.78 180.943 32.08C180.943 30.43 181.218 28.98 181.768 27.73C182.328 26.48 183.143 25.505 184.213 24.805C185.283 24.095 186.583 23.74 188.113 23.74ZM188.113 26.35C186.903 26.35 185.993 26.815 185.383 27.745C184.773 28.665 184.468 30.11 184.468 32.08C184.468 34.04 184.768 35.485 185.368 36.415C185.978 37.345 186.888 37.81 188.098 37.81C189.308 37.81 190.213 37.345 190.813 36.415C191.423 35.485 191.728 34.03 191.728 32.05C191.728 30.1 191.428 28.665 190.828 27.745C190.228 26.815 189.323 26.35 188.113 26.35ZM201.542 31.99V29.23H213.932V31.99H201.542ZM230.99 24.16V36.67C230.99 38.64 230.58 40.275 229.76 41.575C228.95 42.875 227.76 43.91 226.19 44.68C224.62 45.46 222.705 46.055 220.445 46.465L219.905 43.885C221.475 43.585 222.84 43.17 224 42.64C225.16 42.11 226.055 41.385 226.685 40.465C227.315 39.545 227.63 38.355 227.63 36.895V26.62H221.375V24.16H230.99ZM228.365 16.405C229.015 16.405 229.545 16.605 229.955 17.005C230.365 17.405 230.57 17.905 230.57 18.505C230.57 19.105 230.365 19.61 229.955 20.02C229.545 20.43 229.015 20.635 228.365 20.635C227.715 20.635 227.185 20.43 226.775 20.02C226.375 19.61 226.175 19.105 226.175 18.505C226.175 17.905 226.375 17.405 226.775 17.005C227.185 16.605 227.715 16.405 228.365 16.405ZM253.508 24.16L247.928 40H243.998L238.418 24.16H242.018L246.038 37.21L250.073 24.16H253.508Z" fill="#CCD6F6"/>
</svg>
